onset_sec,duration_sec,pitch,velocity,track,channel,id
0.125,0.072916664,48,60,0,0,n0
0.12604167,0.08541667,74,67,0,0,n1
0.22916667,0.072916664,72,62,0,0,n2
0.325,0.077083334,71,65,0,0,n3
0.428125,0.084375,72,67,0,0,n4
0.53125,0.08645833,60,58,0,0,n5
0.5395833,0.054166667,71,68,0,0,n6
0.65,0.0375,72,58,0,0,n7
0.7270833,0.08541667,71,71,0,0,n8
0.81666666,0.08125,72,61,0,0,n9
0.9145833,0.09791667,81,69,0,0,n10
0.9166667,0.090625,64,51,0,0,n11
1.0458333,0.08229167,79,69,0,0,n12
1.1364583,0.0625,78,67,0,0,n13
1.2291666,0.083333336,79,58,0,0,n14
1.3333334,0.055208333,78,68,0,0,n15
1.3385416,0.059375,60,49,0,0,n16
1.4166666,0.08229167,79,59,0,0,n17
1.5177083,0.079166666,78,67,0,0,n18
1.6020833,0.08541667,79,63,0,0,n19
1.7135416,0.10625,80,68,0,0,n20
1.7729167,0.071875,65,47,0,0,n21
1.83125,0.16041666,81,67,0,0,n22
1.9489583,0.11875,84,62,0,0,n23
2.0333333,0.1125,83,62,0,0,n24
2.140625,0.11770833,86,69,0,0,n25
2.1864583,0.08229167,60,47,0,0,n26
2.2302084,0.11875,84,65,0,0,n27
2.3135417,0.08229167,83,66,0,0,n28
2.4104166,0.027083334,81,55,0,0,n29
2.5645833,0.088541664,81,67,0,0,n30
2.5895834,0.36354166,64,52,0,0,n31
2.5916667,0.39895833,60,50,0,0,n32
2.6854167,0.09791667,79,68,0,0,n33
2.7885416,0.10104167,88,69,0,0,n34
2.8635416,0.14791666,86,69,0,0,n35
2.978125,0.096875,84,65,0,0,n36
3.0552084,0.08125,83,61,0,0,n37
3.14375,0.042708334,81,68,0,0,n38
3.2666667,0.047916666,61,60,0,0,n39
3.2729166,0.040625,79,66,0,0,n40
3.3989584,0.08645833,79,73,0,0,n41
3.4208333,0.45208332,62,66,0,0,n42
3.5166667,0.094791666,77,68,0,0,n43
3.621875,0.12916666,86,78,0,0,n44
3.7125,0.15625,84,70,0,0,n45
3.8239584,0.11354167,83,63,0,0,n46
3.8916667,0.060416665,81,64,0,0,n47
3.9927084,0.027083334,79,59,0,0,n48
4.0822916,0.059375,59,63,0,0,n49
4.109375,0.033333335,77,42,0,0,n50
4.234375,0.0625,77,74,0,0,n51
4.2604165,0.36458334,60,60,0,0,n52
4.3302083,0.09583333,76,68,0,0,n53
4.4416666,0.12291667,84,73,0,0,n54
4.5291667,0.16875,83,71,0,0,n55
4.64375,0.10104167,81,59,0,0,n56
4.7208333,0.07604167,79,62,0,0,n57
4.813542,0.057291668,77,60,0,0,n58
4.9239583,0.12604167,76,68,0,0,n59
4.9354167,0.12083333,57,56,0,0,n60
5.06875,0.21979167,74,68,0,0,n61
5.101042,0.23229167,53,57,0,0,n62
5.2708335,0.221875,81,64,0,0,n63
5.498958,0.17916666,79,64,0,0,n64
5.5270834,0.15625,55,53,0,0,n65
5.73125,0.196875,71,57,0,0,n66
5.934375,0.084375,60,53,0,0,n67
5.9489584,0.70208335,72,63,0,0,n68
6.1854167,0.058333334,55,50,0,0,n69
6.3770833,0.059375,52,57,0,0,n70
6.60625,0.05625,55,59,0,0,n71
6.813542,0.08541667,48,67,0,0,n72
6.827083,0.0875,74,62,0,0,n73
6.921875,0.063541666,72,61,0,0,n74
7.016667,0.055208333,71,59,0,0,n75
7.10625,0.08541667,72,63,0,0,n76
7.204167,0.078125,71,65,0,0,n77
7.211458,0.06979167,60,55,0,0,n78
7.311458,0.0625,72,57,0,0,n79
7.3958335,0.09375,71,68,0,0,n80
7.5125,0.057291668,72,63,0,0,n81
7.59375,0.090625,64,57,0,0,n82
7.5958333,0.103125,81,65,0,0,n83
7.733333,0.075,79,69,0,0,n84
7.821875,0.0625,78,69,0,0,n85
7.9104166,0.088541664,79,57,0,0,n86
8.01875,0.07083333,78,69,0,0,n87
8.030209,0.060416665,60,51,0,0,n88
8.10625,0.07604167,79,62,0,0,n89
8.211458,0.051041666,78,64,0,0,n90
8.301042,0.061458334,79,71,0,0,n91
8.407291,0.10729167,80,67,0,0,n92
8.444792,0.058333334,65,46,0,0,n93
8.515625,0.10104167,81,67,0,0,n94
8.608334,0.13541667,84,63,0,0,n95
8.729167,0.083333336,83,56,0,0,n96
8.815625,0.1,86,64,0,0,n97
8.830209,0.109375,60,42,0,0,n98
8.894792,0.104166664,84,67,0,0,n99
8.972917,0.059375,83,65,0,0,n100
9.072917,0.032291666,81,38,0,0,n101
9.201041,0.077083334,81,66,0,0,n102
9.215625,0.33958334,60,52,0,0,n103
9.228125,0.28958333,64,49,0,0,n104
9.315625,0.09791667,79,65,0,0,n105
9.419791,0.103125,88,67,0,0,n106
9.503125,0.13854167,86,67,0,0,n107
9.616667,0.108333334,84,64,0,0,n108
9.6875,0.06875,83,61,0,0,n109
9.772917,0.046875,81,65,0,0,n110
9.890625,0.035416666,79,68,0,0,n111
9.905209,0.058333334,61,59,0,0,n112
10.022917,0.094791666,79,64,0,0,n113
10.057292,0.35104167,62,67,0,0,n114
10.135417,0.084375,77,67,0,0,n115
10.247916,0.11875,86,78,0,0,n116
10.333333,0.16041666,84,69,0,0,n117
10.445833,0.10625,83,62,0,0,n118
10.514584,0.0625,81,60,0,0,n119
10.628125,0.030208332,79,48,0,0,n120
10.695833,0.036458332,77,68,0,0,n121
10.714583,0.058333334,59,56,0,0,n122
10.836458,0.08958333,77,64,0,0,n123
10.871875,0.35208333,60,63,0,0,n124
10.946875,0.08125,76,69,0,0,n125
11.059375,0.10625,84,68,0,0,n126
11.153125,0.12916666,83,66,0,0,n127
11.259375,0.09375,81,61,0,0,n128
11.325,0.08125,79,62,0,0,n129
11.420834,0.051041666,77,62,0,0,n130
11.533334,0.11145833,76,64,0,0,n131
11.54375,0.12604167,57,53,0,0,n132
11.673959,0.25729167,74,62,0,0,n133
11.715625,0.296875,53,55,0,0,n134
11.914583,0.20833333,81,63,0,0,n135
12.132292,0.20208333,79,63,0,0,n136
12.163542,0.134375,55,52,0,0,n137
12.36875,0.20208333,71,47,0,0,n138
12.589583,0.11875,60,50,0,0,n139
12.607291,0.5052083,72,52,0,0,n140
13.079166,0.06979167,48,45,0,0,n141
13.545834,0.07083333,81,58,0,0,n142
13.559375,0.08125,64,58,0,0,n143
13.641666,0.060416665,79,61,0,0,n144
13.765625,0.059375,78,58,0,0,n145
13.85625,0.075,79,61,0,0,n146
13.951041,0.0875,55,37,0,0,n147
13.959375,0.094791666,78,66,0,0,n148
14.064584,0.08229167,79,57,0,0,n149
14.140625,0.10104167,81,63,0,0,n150
14.228125,0.059375,79,52,0,0,n151
14.379167,0.13229166,62,57,0,0,n152
14.397917,0.08125,79,68,0,0,n153
14.497916,0.032291666,77,56,0,0,n154
14.561459,0.094791666,76,64,0,0,n155
14.6625,0.045833334,77,56,0,0,n156
14.752084,0.08229167,76,48,0,0,n157
14.789583,0.103125,55,49,0,0,n158
14.832292,0.07395833,77,53,0,0,n159
14.932292,0.09583333,79,69,0,0,n160
15.035417,0.036458332,77,68,0,0,n161
15.176042,0.125,77,63,0,0,n162
15.19375,0.104166664,60,52,0,0,n163
15.279166,0.08020833,76,65,0,0,n164
15.382292,0.060416665,75,69,0,0,n165
15.485416,0.08020833,76,63,0,0,n166
15.580209,0.08541667,55,47,0,0,n167
15.584375,0.08541667,75,71,0,0,n168
15.682292,0.06666667,76,62,0,0,n169
15.764584,0.090625,77,74,0,0,n170
15.85625,0.032291666,76,55,0,0,n171
15.983334,0.078125,76,75,0,0,n172
15.995833,0.12916666,65,59,0,0,n173
16.095833,0.08229167,74,69,0,0,n174
16.198957,0.055208333,73,66,0,0,n175
16.311459,0.054166667,74,63,0,0,n176
16.389584,0.09583333,73,65,0,0,n177
16.415625,0.051041666,55,36,0,0,n178
16.497917,0.054166667,74,67,0,0,n179
16.597918,0.058333334,76,68,0,0,n180
16.686459,0.06666667,74,71,0,0,n181
16.845833,0.078125,81,73,0,0,n182
16.847918,0.571875,64,49,0,0,n183
16.855207,0.571875,55,50,0,0,n184
16.958334,0.08541667,79,71,0,0,n185
17.059376,0.0875,78,69,0,0,n186
17.167707,0.08645833,79,66,0,0,n187
17.255209,0.1125,88,63,0,0,n188
17.366667,0.16666667,84,73,0,0,n189
17.472918,0.08125,81,60,0,0,n190
17.55,0.052083332,79,72,0,0,n191
17.707293,0.61354166,62,52,0,0,n192
17.7125,0.07604167,79,68,0,0,n193
17.719791,0.578125,55,48,0,0,n194
17.795834,0.11145833,77,67,0,0,n195
17.922916,0.077083334,76,69,0,0,n196
18.029167,0.103125,77,69,0,0,n197
18.130209,0.11875,86,72,0,0,n198
18.23125,0.13229166,83,71,0,0,n199
18.341667,0.067708336,79,65,0,0,n200
18.414583,0.04375,77,64,0,0,n201
18.55625,0.48645833,60,50,0,0,n202
18.563541,0.06979167,77,68,0,0,n203
18.566668,0.465625,55,45,0,0,n204
18.664583,0.08125,76,65,0,0,n205
18.775,0.079166666,75,69,0,0,n206
18.895834,0.06666667,76,63,0,0,n207
18.965626,0.13125,84,68,0,0,n208
19.089582,0.13541667,79,70,0,0,n209
19.20625,0.09166667,77,51,0,0,n210
19.285418,0.18229167,60,47,0,0,n211
19.298958,0.121875,76,62,0,0,n212
19.470833,0.48229167,79,65,0,0,n213
19.494791,0.6791667,55,46,0,0,n214
19.502083,0.478125,64,49,0,0,n215
19.966667,0.19895834,76,52,0,0,n216
19.978125,0.225,60,46,0,0,n217
20.191668,0.29479167,74,53,0,0,n218
20.203125,0.28020832,59,48,0,0,n219
20.833334,0.08958333,48,53,0,0,n220
20.85625,0.09375,74,63,0,0,n221
20.959375,0.058333334,72,53,0,0,n222
21.051043,0.05625,71,56,0,0,n223
21.140625,0.096875,72,57,0,0,n224
21.252083,0.059375,71,59,0,0,n225
21.277082,0.06875,60,52,0,0,n226
21.364584,0.055208333,72,56,0,0,n227
21.45,0.07083333,71,69,0,0,n228
21.540625,0.06979167,72,63,0,0,n229
21.658333,0.05625,81,49,0,0,n230
21.711458,0.10520833,64,50,0,0,n231
21.782291,0.08541667,79,65,0,0,n232
21.879168,0.045833334,78,63,0,0,n233
21.975,0.075,79,52,0,0,n234
22.067709,0.0875,78,63,0,0,n235
22.121876,0.072916664,60,50,0,0,n236
22.182291,0.065625,79,68,0,0,n237
22.284374,0.061458334,78,59,0,0,n238
22.398958,0.051041666,79,65,0,0,n239
22.491667,0.12708333,80,64,0,0,n240
22.534374,0.088541664,65,53,0,0,n241
22.613543,0.1,81,61,0,0,n242
22.705208,0.128125,84,57,0,0,n243
22.805208,0.108333334,83,60,0,0,n244
22.915625,0.11145833,86,68,0,0,n245
22.966667,0.079166666,60,49,0,0,n246
23.0,0.12083333,84,62,0,0,n247
23.082293,0.08020833,83,67,0,0,n248
23.166666,0.036458332,81,61,0,0,n249
23.319792,0.079166666,81,69,0,0,n250
23.357292,0.35,64,51,0,0,n251
23.358334,0.38854167,60,51,0,0,n252
23.441668,0.10104167,79,65,0,0,n253
23.55625,0.10625,88,65,0,0,n254
23.635416,0.15416667,86,69,0,0,n255
23.75,0.115625,84,64,0,0,n256
23.857292,0.05,83,56,0,0,n257
23.922916,0.053125,81,61,0,0,n258
24.033333,0.044791665,61,65,0,0,n259
24.048958,0.026041666,79,62,0,0,n260
24.172916,0.09583333,79,67,0,0,n261
24.204166,0.44166666,62,61,0,0,n262
24.292707,0.098958336,77,67,0,0,n263
24.397917,0.11875,86,73,0,0,n264
24.485416,0.15625,84,69,0,0,n265
24.597918,0.114583336,83,64,0,0,n266
24.678125,0.054166667,81,62,0,0,n267
24.76875,0.033333335,79,61,0,0,n268
24.867708,0.059375,59,64,0,0,n269
24.86875,0.022916667,77,66,0,0,n270
24.992708,0.098958336,77,64,0,0,n271
25.023958,0.38229167,60,63,0,0,n272
25.109375,0.09791667,76,65,0,0,n273
25.214582,0.121875,84,71,0,0,n274
25.311459,0.153125,83,68,0,0,n275
25.421875,0.110416666,81,61,0,0,n276
25.510416,0.060416665,79,63,0,0,n277
25.590626,0.065625,77,61,0,0,n278
25.683332,0.084375,57,56,0,0,n279
25.705208,0.10729167,76,67,0,0,n280
25.853125,0.24479167,74,63,0,0,n281
25.857292,0.265625,53,58,0,0,n282
26.088541,0.22708334,81,66,0,0,n283
26.28125,0.21770833,79,66,0,0,n284
26.313541,0.15520833,55,47,0,0,n285
26.516666,0.225,71,59,0,0,n286
26.763542,0.12708333,60,51,0,0,n287
26.775,0.52708334,72,53,0,0,n288
27.265625,0.071875,48,47,0,0,n289
27.738543,0.059375,81,55,0,0,n290
27.745832,0.06666667,64,56,0,0,n291
27.827084,0.058333334,79,60,0,0,n292
27.954166,0.063541666,78,56,0,0,n293
28.057291,0.06979167,79,55,0,0,n294
28.159374,0.09791667,78,64,0,0,n295
28.160418,0.07604167,55,44,0,0,n296
28.285418,0.058333334,79,53,0,0,n297
28.354166,0.104166664,81,57,0,0,n298
28.440624,0.046875,79,59,0,0,n299
28.590626,0.10729167,62,51,0,0,n300
28.590626,0.1,79,69,0,0,n301
28.716667,0.032291666,77,53,0,0,n302
28.773958,0.08229167,76,61,0,0,n303
28.879168,0.048958335,77,51,0,0,n304
28.960417,0.0875,76,51,0,0,n305
28.970833,0.08958333,55,51,0,0,n306
29.064583,0.054166667,77,51,0,0,n307
29.151041,0.10208333,79,64,0,0,n308
29.25,0.051041666,77,63,0,0,n309
29.391666,0.08958333,60,48,0,0,n310
29.407291,0.104166664,77,58,0,0,n311
29.498959,0.09375,76,69,0,0,n312
29.614584,0.04375,75,60,0,0,n313
29.7,0.075,76,56,0,0,n314
29.7875,0.09583333,75,64,0,0,n315
29.809376,0.0875,55,47,0,0,n316
29.89375,0.065625,76,68,0,0,n317
29.994791,0.096875,77,66,0,0,n318
30.064583,0.057291668,76,60,0,0,n319
30.215626,0.061458334,76,68,0,0,n320
30.221874,0.12604167,65,61,0,0,n321
30.325,0.059375,74,64,0,0,n322
30.434376,0.054166667,73,61,0,0,n323
30.536459,0.051041666,74,57,0,0,n324
30.613543,0.096875,73,65,0,0,n325
30.64375,0.06458333,55,46,0,0,n326
30.736458,0.05625,74,60,0,0,n327
30.835417,0.06458333,76,63,0,0,n328
30.922916,0.06458333,74,69,0,0,n329
31.089582,0.6177083,64,51,0,0,n330
31.090626,0.078125,81,68,0,0,n331
31.113543,0.59791666,55,43,0,0,n332
31.208334,0.084375,79,69,0,0,n333
31.319792,0.083333336,78,68,0,0,n334
31.421875,0.088541664,79,74,0,0,n335
31.502083,0.23854166,88,73,0,0,n336
31.610416,0.15833333,84,75,0,0,n337
31.715626,0.084375,81,73,0,0,n338
31.801043,0.044791665,79,66,0,0,n339
31.938541,0.57604164,62,60,0,0,n340
31.942709,0.084375,79,73,0,0,n341
31.948957,0.56458336,55,51,0,0,n342
32.035416,0.10729167,77,69,0,0,n343
32.15625,0.08229167,76,68,0,0,n344
32.260418,0.09375,77,65,0,0,n345
32.354168,0.11666667,86,70,0,0,n346
32.4625,0.13645834,83,68,0,0,n347
32.565624,0.078125,79,68,0,0,n348
32.652084,0.040625,77,61,0,0,n349
32.777084,0.09375,77,74,0,0,n350
32.784374,0.5104167,60,53,0,0,n351
32.816666,0.48333332,55,52,0,0,n352
32.890625,0.096875,76,69,0,0,n353
33.002083,0.084375,75,71,0,0,n354
33.102085,0.09583333,76,64,0,0,n355
33.196877,0.121875,84,71,0,0,n356
33.327084,0.13333334,79,70,0,0,n357
33.452084,0.088541664,77,58,0,0,n358
33.5,0.19479166,60,53,0,0,n359
33.534374,0.140625,76,66,0,0,n360
33.70729,0.55625,79,65,0,0,n361
33.713543,0.515625,64,52,0,0,n362
33.722916,0.7104167,55,45,0,0,n363
34.21875,0.23854166,76,52,0,0,n364
34.228127,0.209375,60,43,0,0,n365
34.45,0.21770833,74,58,0,0,n366
34.453125,0.21666667,59,46,0,0,n367
35.089584,0.06458333,48,51,0,0,n368
35.096874,0.088541664,74,61,0,0,n369
35.204166,0.046875,72,56,0,0,n370
35.297916,0.047916666,71,53,0,0,n371
35.38125,0.09583333,72,58,0,0,n372
35.49271,0.059375,71,55,0,0,n373
35.515625,0.08229167,60,47,0,0,n374
35.598957,0.057291668,72,50,0,0,n375
35.678123,0.094791666,71,63,0,0,n376
35.795834,0.075,72,64,0,0,n377
35.915627,0.088541664,81,62,0,0,n378
35.94896,0.090625,64,53,0,0,n379
36.040627,0.08958333,79,64,0,0,n380
36.14375,0.06979167,78,65,0,0,n381
36.264584,0.052083332,79,64,0,0,n382
36.357292,0.06875,60,55,0,0,n383
36.360416,0.06666667,78,67,0,0,n384
36.452084,0.053125,79,64,0,0,n385
36.55521,0.058333334,78,64,0,0,n386
36.647915,0.055208333,79,65,0,0,n387
36.74896,0.123958334,80,66,0,0,n388
36.817707,0.072916664,65,43,0,0,n389
36.875,0.09583333,81,61,0,0,n390
36.9625,0.12916666,84,62,0,0,n391
37.06875,0.11145833,83,59,0,0,n392
37.182293,0.10729167,86,65,0,0,n393
37.183334,0.12916666,60,42,0,0,n394
37.271873,0.11354167,84,59,0,0,n395
37.346874,0.090625,83,65,0,0,n396
37.434376,0.041666668,81,60,0,0,n397
37.59271,0.08645833,81,69,0,0,n398
37.614582,0.359375,64,52,0,0,n399
37.615623,0.39791667,60,52,0,0,n400
37.71771,0.103125,79,64,0,0,n401
37.821877,0.11145833,88,73,0,0,n402
37.920834,0.134375,86,70,0,0,n403
38.029167,0.11875,84,66,0,0,n404
38.11354,0.08125,83,67,0,0,n405
38.213543,0.0375,81,62,0,0,n406
38.308334,0.058333334,61,59,0,0,n407
38.328125,0.036458332,79,67,0,0,n408
38.460415,0.084375,79,66,0,0,n409
38.46771,0.44583333,62,66,0,0,n410
38.571877,0.098958336,77,63,0,0,n411
38.679165,0.072916664,86,80,0,0,n412
38.772915,0.14479166,84,74,0,0,n413
38.880207,0.119791664,83,68,0,0,n414
38.985416,0.06875,81,67,0,0,n415
39.065624,0.0375,79,65,0,0,n416
39.15,0.05625,59,64,0,0,n417
39.179165,0.036458332,77,68,0,0,n418
39.298958,0.098958336,77,67,0,0,n419
39.317707,0.37604168,60,66,0,0,n420
39.41354,0.084375,76,67,0,0,n421
39.53125,0.11770833,84,74,0,0,n422
39.633335,0.140625,83,69,0,0,n423
39.74375,0.06875,81,59,0,0,n424
39.795834,0.08020833,79,67,0,0,n425
39.892708,0.061458334,77,64,0,0,n426
39.965626,0.108333334,57,59,0,0,n427
40.00729,0.128125,76,65,0,0,n428
40.130207,0.30416667,53,65,0,0,n429
40.142708,0.24583334,74,70,0,0,n430
40.377083,0.23125,81,65,0,0,n431
40.589584,0.21458334,79,63,0,0,n432
40.603127,0.175,55,55,0,0,n433
40.827084,0.225,71,62,0,0,n434
41.078125,0.9302083,72,55,0,0,n435
41.080208,0.15104167,60,50,0,0,n436
41.598957,0.5375,48,51,0,0,n437
