onset_sec,duration_sec,pitch,velocity,track,channel,id
0.1625,0.054166667,48,60,0,0,n0
0.16666667,0.047916666,74,58,0,0,n1
0.25208333,0.063541666,72,62,0,0,n2
0.35416666,0.045833334,71,59,0,0,n3
0.44375,0.05625,72,57,0,0,n4
0.51666665,0.063541666,60,55,0,0,n5
0.5239583,0.055208333,71,61,0,0,n6
0.615625,0.034375,72,55,0,0,n7
0.69166666,0.08645833,71,65,0,0,n8
0.77708334,0.057291668,72,59,0,0,n9
0.87604165,0.083333336,81,62,0,0,n10
0.8854167,0.071875,64,53,0,0,n11
0.9927083,0.079166666,79,69,0,0,n12
1.0833334,0.053125,78,63,0,0,n13
1.175,0.061458334,79,50,0,0,n14
1.2697917,0.067708336,78,62,0,0,n15
1.278125,0.057291668,60,50,0,0,n16
1.36875,0.045833334,79,66,0,0,n17
1.465625,0.048958335,78,61,0,0,n18
1.5458333,0.053125,79,65,0,0,n19
1.6385417,0.06458333,65,46,0,0,n20
1.6541667,0.08958333,80,62,0,0,n21
1.7458333,0.10729167,81,63,0,0,n22
1.8572917,0.128125,84,64,0,0,n23
1.9666667,0.08958333,83,52,0,0,n24
1.990625,0.13854167,60,39,0,0,n25
2.0427084,0.11666667,86,61,0,0,n26
2.140625,0.115625,84,67,0,0,n27
2.221875,0.055208333,83,63,0,0,n28
2.2885416,0.0375,81,65,0,0,n29
2.4333334,0.072916664,81,71,0,0,n30
2.434375,0.415625,60,44,0,0,n31
2.4364583,0.39583334,64,47,0,0,n32
2.5385416,0.09375,79,67,0,0,n33
2.6489584,0.10520833,88,67,0,0,n34
2.7364583,0.13125,86,71,0,0,n35
2.83125,0.110416666,84,62,0,0,n36
2.896875,0.08125,83,68,0,0,n37
2.9864583,0.042708334,81,60,0,0,n38
3.0677083,0.04375,61,59,0,0,n39
3.1052084,0.033333335,79,69,0,0,n40
3.2354167,0.08229167,79,69,0,0,n41
3.2395833,0.46979168,62,67,0,0,n42
3.3333333,0.09583333,77,68,0,0,n43
3.45,0.10729167,86,75,0,0,n44
3.5322917,0.15,84,68,0,0,n45
3.6385417,0.110416666,83,62,0,0,n46
3.7072916,0.06875,81,67,0,0,n47
3.7947917,0.029166667,79,55,0,0,n48
3.8864584,0.0625,59,60,0,0,n49
3.9041667,0.036458332,77,67,0,0,n50
4.021875,0.108333334,77,68,0,0,n51
4.055208,0.4375,60,60,0,0,n52
4.140625,0.092708334,76,71,0,0,n53
4.2604165,0.11770833,84,73,0,0,n54
4.351042,0.15520833,83,70,0,0,n55
4.469792,0.092708334,81,56,0,0,n56
4.5135417,0.0875,79,68,0,0,n57
4.6072917,0.067708336,77,62,0,0,n58
4.7145834,0.08645833,57,57,0,0,n59
4.7208333,0.110416666,76,65,0,0,n60
4.8458333,0.26354167,74,69,0,0,n61
4.8770833,0.2875,53,60,0,0,n62
5.065625,0.21666667,81,67,0,0,n63
5.2833333,0.171875,79,68,0,0,n64
5.321875,0.11770833,55,56,0,0,n65
5.4979167,0.18541667,71,61,0,0,n66
5.6822915,0.058333334,60,58,0,0,n67
5.703125,0.56354165,72,59,0,0,n68
5.9166665,0.05625,55,57,0,0,n69
6.102083,0.047916666,52,56,0,0,n70
6.3010416,0.054166667,55,58,0,0,n71
6.5020833,0.06458333,48,64,0,0,n72
6.5114584,0.08020833,74,63,0,0,n73
6.594792,0.060416665,72,58,0,0,n74
6.690625,0.048958335,71,55,0,0,n75
6.790625,0.063541666,72,58,0,0,n76
6.8802085,0.065625,71,55,0,0,n77
6.884375,0.08645833,60,47,0,0,n78
7.009375,0.036458332,72,47,0,0,n79
7.096875,0.077083334,71,59,0,0,n80
7.1666665,0.078125,72,58,0,0,n81
7.266667,0.103125,64,46,0,0,n82
7.282292,0.0625,81,58,0,0,n83
7.4,0.083333336,79,68,0,0,n84
7.501042,0.048958335,78,62,0,0,n85
7.5989585,0.059375,79,56,0,0,n86
7.657292,0.060416665,60,48,0,0,n87
7.6822915,0.060416665,78,65,0,0,n88
7.7770834,0.051041666,79,67,0,0,n89
7.8802085,0.045833334,78,59,0,0,n90
7.961458,0.052083332,79,65,0,0,n91
8.0625,0.057291668,65,49,0,0,n92
8.065625,0.08020833,80,63,0,0,n93
8.159375,0.108333334,81,65,0,0,n94
8.26875,0.15208334,84,64,0,0,n95
8.379167,0.108333334,83,58,0,0,n96
8.491667,0.110416666,60,45,0,0,n97
8.49375,0.10520833,86,63,0,0,n98
8.573958,0.115625,84,64,0,0,n99
8.651042,0.08645833,83,66,0,0,n100
8.747916,0.03125,81,55,0,0,n101
8.886458,0.08958333,81,68,0,0,n102
8.902083,0.47604167,60,48,0,0,n103
8.909375,0.43854168,64,44,0,0,n104
8.99375,0.09375,79,65,0,0,n105
9.109375,0.104166664,88,68,0,0,n106
9.19375,0.15625,86,69,0,0,n107
9.3,0.114583336,84,60,0,0,n108
9.366667,0.08958333,83,63,0,0,n109
9.475,0.04375,81,58,0,0,n110
9.566667,0.040625,61,59,0,0,n111
9.584375,0.022916667,79,67,0,0,n112
9.7125,0.08541667,79,67,0,0,n113
9.723958,0.5,62,67,0,0,n114
9.814584,0.09583333,77,67,0,0,n115
9.932292,0.108333334,86,78,0,0,n116
10.014584,0.15416667,84,69,0,0,n117
10.119792,0.09583333,83,63,0,0,n118
10.170834,0.075,81,68,0,0,n119
10.267709,0.033333335,79,60,0,0,n120
10.359375,0.034375,77,70,0,0,n121
10.367708,0.06979167,59,62,0,0,n122
10.485416,0.09375,77,72,0,0,n123
10.530209,0.45,60,67,0,0,n124
10.589583,0.088541664,76,67,0,0,n125
10.702084,0.11875,84,71,0,0,n126
10.791667,0.16145833,83,67,0,0,n127
10.892709,0.110416666,81,62,0,0,n128
10.972917,0.08020833,79,66,0,0,n129
11.070833,0.046875,77,61,0,0,n130
11.169791,0.07604167,57,50,0,0,n131
11.175,0.119791664,76,65,0,0,n132
11.315625,0.24895833,74,62,0,0,n133
11.330209,0.43333334,53,59,0,0,n134
11.563541,0.225,81,58,0,0,n135
11.779166,0.22395833,79,60,0,0,n136
11.81875,0.171875,55,50,0,0,n137
12.0125,0.20625,71,51,0,0,n138
12.240625,0.5052083,72,50,0,0,n139
12.25,0.17708333,60,46,0,0,n140
12.702084,0.14166667,48,50,0,0,n141
13.109375,0.055208333,81,63,0,0,n142
13.125,0.098958336,64,53,0,0,n143
13.210417,0.05,79,61,0,0,n144
13.310416,0.051041666,78,62,0,0,n145
13.408334,0.053125,79,58,0,0,n146
13.486459,0.09583333,78,65,0,0,n147
13.525,0.103125,55,49,0,0,n148
13.585417,0.084375,79,56,0,0,n149
13.669791,0.103125,81,58,0,0,n150
13.754167,0.045833334,79,52,0,0,n151
13.895833,0.09166667,79,73,0,0,n152
13.913542,0.13125,62,60,0,0,n153
13.997916,0.042708334,77,61,0,0,n154
14.066667,0.059375,76,61,0,0,n155
14.175,0.044791665,77,56,0,0,n156
14.255208,0.08958333,76,65,0,0,n157
14.308333,0.078125,55,46,0,0,n158
14.334375,0.075,77,58,0,0,n159
14.43125,0.090625,79,64,0,0,n160
14.53125,0.03125,77,55,0,0,n161
14.654166,0.134375,77,68,0,0,n162
14.682292,0.10625,60,52,0,0,n163
14.758333,0.083333336,76,67,0,0,n164
14.855208,0.051041666,75,64,0,0,n165
14.951041,0.06666667,76,56,0,0,n166
15.039583,0.08020833,75,62,0,0,n167
15.1,0.094791666,55,48,0,0,n168
15.147917,0.045833334,76,50,0,0,n169
15.241667,0.10520833,77,62,0,0,n170
15.321875,0.05,76,59,0,0,n171
15.482291,0.052083332,76,65,0,0,n172
15.504167,0.1375,65,57,0,0,n173
15.578125,0.052083332,74,66,0,0,n174
15.688541,0.05625,73,55,0,0,n175
15.775,0.061458334,74,60,0,0,n176
15.871875,0.09791667,73,59,0,0,n177
15.961458,0.045833334,55,44,0,0,n178
16.010416,0.035416666,74,50,0,0,n179
16.103125,0.047916666,76,59,0,0,n180
16.164583,0.084375,74,58,0,0,n181
16.334375,0.64270836,55,51,0,0,n182
16.338541,0.64479166,64,50,0,0,n183
16.345833,0.072916664,81,66,0,0,n184
16.460417,0.058333334,79,67,0,0,n185
16.559376,0.07395833,78,68,0,0,n186
16.651041,0.092708334,79,71,0,0,n187
16.744791,0.21770833,88,71,0,0,n188
16.848959,0.13541667,84,70,0,0,n189
16.941668,0.07395833,81,68,0,0,n190
17.01875,0.05,79,64,0,0,n191
17.155209,0.6302083,55,49,0,0,n192
17.170834,0.07604167,79,72,0,0,n193
17.189583,0.621875,62,49,0,0,n194
17.266666,0.08645833,77,68,0,0,n195
17.372917,0.06875,76,68,0,0,n196
17.461458,0.103125,77,57,0,0,n197
17.570833,0.20208333,86,73,0,0,n198
17.671875,0.140625,83,68,0,0,n199
17.78125,0.05,79,48,0,0,n200
17.795834,0.029166667,81,53,0,0,n201
17.846874,0.041666668,77,59,0,0,n202
17.978125,0.071875,77,71,0,0,n203
17.984375,0.471875,60,59,0,0,n204
17.988543,0.47708333,55,45,0,0,n205
18.064583,0.088541664,76,68,0,0,n206
18.177084,0.08125,75,70,0,0,n207
18.284374,0.10208333,76,69,0,0,n208
18.376041,0.12291667,84,73,0,0,n209
18.51875,0.114583336,79,62,0,0,n210
18.60625,0.103125,77,60,0,0,n211
18.682291,0.18125,60,46,0,0,n212
18.7125,0.13229166,76,60,0,0,n213
18.885416,0.584375,79,71,0,0,n214
18.892708,0.49479166,64,48,0,0,n215
18.895834,0.70208335,55,46,0,0,n216
19.404167,0.175,76,58,0,0,n217
19.408333,0.17395833,60,45,0,0,n218
19.591667,0.39791667,74,52,0,0,n219
19.605207,0.37291667,59,47,0,0,n220
20.223959,0.06458333,74,37,0,0,n221
20.232292,0.055208333,48,44,0,0,n222
20.265625,0.125,72,26,0,0,n223
20.401041,0.06875,71,35,0,0,n224
20.532291,0.039583333,72,46,0,0,n225
20.60625,0.08541667,60,53,0,0,n226
20.610416,0.053125,71,67,0,0,n227
20.698957,0.061458334,72,52,0,0,n228
20.783333,0.08958333,71,69,0,0,n229
20.888542,0.045833334,72,64,0,0,n230
20.973959,0.09166667,81,63,0,0,n231
20.997917,0.08020833,64,50,0,0,n232
21.096874,0.077083334,79,69,0,0,n233
21.19375,0.06666667,78,66,0,0,n234
21.289583,0.065625,79,59,0,0,n235
21.3875,0.058333334,78,68,0,0,n236
21.39375,0.057291668,60,53,0,0,n237
21.4875,0.05,79,63,0,0,n238
21.56875,0.078125,78,69,0,0,n239
21.658333,0.065625,79,64,0,0,n240
21.772917,0.090625,80,59,0,0,n241
21.792707,0.063541666,65,50,0,0,n242
21.876041,0.109375,81,61,0,0,n243
21.973959,0.1125,84,59,0,0,n244
22.066668,0.10729167,83,58,0,0,n245
22.173958,0.110416666,86,67,0,0,n246
22.191668,0.12916666,60,44,0,0,n247
22.263542,0.12604167,84,61,0,0,n248
22.348959,0.08645833,83,64,0,0,n249
22.438541,0.040625,81,59,0,0,n250
22.586458,0.09583333,81,65,0,0,n251
22.598959,0.478125,60,55,0,0,n252
22.60625,0.453125,64,50,0,0,n253
22.69375,0.098958336,79,68,0,0,n254
22.817709,0.12291667,88,74,0,0,n255
22.930208,0.140625,86,71,0,0,n256
23.029167,0.119791664,84,66,0,0,n257
23.101042,0.0875,83,62,0,0,n258
23.195833,0.042708334,81,63,0,0,n259
23.288542,0.048958335,61,58,0,0,n260
23.31875,0.036458332,79,69,0,0,n261
23.4375,0.10104167,79,71,0,0,n262
23.44375,0.53020835,62,62,0,0,n263
23.558332,0.09583333,77,68,0,0,n264
23.663542,0.123958334,86,79,0,0,n265
23.759375,0.16875,84,68,0,0,n266
23.86875,0.11666667,83,62,0,0,n267
23.944792,0.06979167,81,66,0,0,n268
24.026041,0.040625,79,60,0,0,n269
24.132292,0.059375,59,59,0,0,n270
24.146875,0.035416666,77,65,0,0,n271
24.265625,0.110416666,77,69,0,0,n272
24.291666,0.46875,60,62,0,0,n273
24.386457,0.096875,76,65,0,0,n274
24.495832,0.11875,84,73,0,0,n275
24.585417,0.15208334,83,70,0,0,n276
24.690624,0.10520833,81,63,0,0,n277
24.783333,0.057291668,79,61,0,0,n278
24.860416,0.055208333,77,60,0,0,n279
24.96875,0.175,57,52,0,0,n280
24.982292,0.11354167,76,62,0,0,n281
25.113543,0.34166667,53,62,0,0,n282
25.114584,0.265625,74,62,0,0,n283
25.340626,0.20416667,81,65,0,0,n284
25.542707,0.203125,79,68,0,0,n285
25.558332,0.225,55,55,0,0,n286
25.778126,0.20833333,71,56,0,0,n287
26.0125,0.5552083,72,55,0,0,n288
26.0375,0.115625,60,46,0,0,n289
26.470833,0.22395833,48,49,0,0,n290
26.926043,0.07083333,81,65,0,0,n291
26.938541,0.10625,64,60,0,0,n292
27.03125,0.041666668,79,62,0,0,n293
27.134375,0.042708334,78,61,0,0,n294
27.230207,0.058333334,79,53,0,0,n295
27.311459,0.09791667,78,60,0,0,n296
27.357292,0.10104167,55,48,0,0,n297
27.417707,0.06979167,79,60,0,0,n298
27.503124,0.10104167,81,56,0,0,n299
27.605207,0.042708334,79,59,0,0,n300
27.732292,0.092708334,79,73,0,0,n301
27.761457,0.11666667,62,59,0,0,n302
27.838541,0.059375,77,65,0,0,n303
27.928125,0.061458334,76,58,0,0,n304
28.027082,0.0625,77,55,0,0,n305
28.122917,0.088541664,76,68,0,0,n306
28.161459,0.084375,55,45,0,0,n307
28.241667,0.035416666,77,39,0,0,n308
28.292707,0.09375,79,68,0,0,n309
28.396875,0.030208332,77,50,0,0,n310
28.523958,0.14166667,77,66,0,0,n311
28.5375,0.115625,60,52,0,0,n312
28.620832,0.0875,76,68,0,0,n313
28.726042,0.054166667,75,66,0,0,n314
28.822916,0.06875,76,59,0,0,n315
28.916666,0.077083334,75,63,0,0,n316
28.941668,0.088541664,55,50,0,0,n317
29.002083,0.061458334,76,56,0,0,n318
29.094791,0.094791666,77,69,0,0,n319
29.186459,0.040625,76,59,0,0,n320
29.326042,0.058333334,76,71,0,0,n321
29.3375,0.104166664,65,59,0,0,n322
29.43125,0.05625,74,67,0,0,n323
29.525,0.059375,73,62,0,0,n324
29.633333,0.057291668,74,61,0,0,n325
29.730207,0.07604167,73,58,0,0,n326
29.764584,0.046875,55,44,0,0,n327
29.832293,0.075,74,64,0,0,n328
29.952084,0.044791665,76,59,0,0,n329
30.019793,0.06666667,74,69,0,0,n330
30.145834,0.72291666,64,49,0,0,n331
30.166666,0.703125,55,47,0,0,n332
30.172916,0.071875,81,65,0,0,n333
30.282291,0.08958333,79,69,0,0,n334
30.385416,0.08541667,78,71,0,0,n335
30.479166,0.119791664,79,71,0,0,n336
30.580208,0.11875,88,78,0,0,n337
30.691668,0.13854167,84,69,0,0,n338
30.7875,0.078125,81,68,0,0,n339
30.864584,0.045833334,79,70,0,0,n340
31.020834,0.06979167,79,68,0,0,n341
31.026041,0.63958335,55,58,0,0,n342
31.041666,0.65,62,47,0,0,n343
31.105207,0.11145833,77,72,0,0,n344
31.233334,0.07083333,76,64,0,0,n345
31.322916,0.108333334,77,60,0,0,n346
31.4375,0.109375,86,71,0,0,n347
31.5375,0.110416666,83,65,0,0,n348
31.630209,0.071875,79,64,0,0,n349
31.697916,0.061458334,77,67,0,0,n350
31.846874,0.084375,77,58,0,0,n351
31.854166,0.471875,60,47,0,0,n352
31.857292,0.5072917,55,47,0,0,n353
31.947916,0.08020833,76,68,0,0,n354
32.06875,0.063541666,75,65,0,0,n355
32.15729,0.121875,76,62,0,0,n356
32.255207,0.123958334,84,64,0,0,n357
32.383335,0.119791664,79,68,0,0,n358
32.489582,0.088541664,77,51,0,0,n359
32.522915,0.196875,60,50,0,0,n360
32.5875,0.14583333,76,58,0,0,n361
32.728127,0.5385417,79,67,0,0,n362
32.740623,0.51354164,64,45,0,0,n363
32.75104,0.67083335,55,42,0,0,n364
33.264584,0.19895834,76,59,0,0,n365
33.286457,0.16458334,60,33,0,0,n366
33.464584,0.38333333,74,53,0,0,n367
33.477085,0.31458333,59,42,0,0,n368
34.04271,0.094791666,48,61,0,0,n369
34.048958,0.08958333,74,63,0,0,n370
34.15625,0.05625,72,56,0,0,n371
34.252083,0.040625,71,59,0,0,n372
34.338543,0.075,72,55,0,0,n373
34.447918,0.060416665,60,50,0,0,n374
34.44896,0.057291668,71,51,0,0,n375
34.554165,0.060416665,72,53,0,0,n376
34.640625,0.08958333,71,60,0,0,n377
34.732292,0.09166667,72,59,0,0,n378
34.840626,0.110416666,81,70,0,0,n379
34.853127,0.088541664,64,48,0,0,n380
34.98854,0.083333336,79,66,0,0,n381
35.097916,0.047916666,78,55,0,0,n382
35.19375,0.067708336,79,46,0,0,n383
35.276043,0.0625,60,53,0,0,n384
35.279167,0.0625,78,62,0,0,n385
35.389584,0.048958335,79,65,0,0,n386
35.477085,0.077083334,78,64,0,0,n387
35.566666,0.055208333,79,56,0,0,n388
35.669792,0.10104167,80,64,0,0,n389
35.71146,0.055208333,65,48,0,0,n390
35.791668,0.096875,81,63,0,0,n391
35.88229,0.11666667,84,59,0,0,n392
35.966667,0.1,83,59,0,0,n393
36.070835,0.109375,86,65,0,0,n394
36.133335,0.11875,60,44,0,0,n395
36.161457,0.13229166,84,66,0,0,n396
36.252083,0.096875,83,61,0,0,n397
36.338543,0.051041666,81,62,0,0,n398
36.50729,0.078125,81,68,0,0,n399
36.552082,0.42291668,64,51,0,0,n400
36.559376,0.44166666,60,48,0,0,n401
36.60104,0.109375,79,65,0,0,n402
36.729168,0.108333334,88,72,0,0,n403
36.828125,0.15104167,86,69,0,0,n404
36.93125,0.13020833,84,66,0,0,n405
37.021873,0.08645833,83,64,0,0,n406
37.108334,0.044791665,81,60,0,0,n407
37.21979,0.044791665,61,63,0,0,n408
37.244793,0.030208332,79,66,0,0,n409
37.371876,0.098958336,79,69,0,0,n410
37.372917,0.52708334,62,68,0,0,n411
37.496876,0.09791667,77,64,0,0,n412
37.59375,0.12083333,86,75,0,0,n413
37.6875,0.13854167,84,68,0,0,n414
37.7875,0.10104167,83,64,0,0,n415
37.85104,0.077083334,81,63,0,0,n416
37.95729,0.028125,79,53,0,0,n417
38.059376,0.032291666,77,66,0,0,n418
38.060417,0.041666668,59,51,0,0,n419
38.179165,0.09583333,77,69,0,0,n420
38.2,0.47083333,60,64,0,0,n421
38.30625,0.088541664,76,65,0,0,n422
38.408333,0.140625,84,72,0,0,n423
38.50625,0.17395833,83,66,0,0,n424
38.619793,0.13229166,81,63,0,0,n425
38.71146,0.08125,79,62,0,0,n426
38.804165,0.051041666,77,61,0,0,n427
38.914585,0.096875,57,52,0,0,n428
38.93021,0.09375,76,60,0,0,n429
39.05521,0.28333333,74,62,0,0,n430
39.0625,0.35,53,57,0,0,n431
39.303123,0.21458334,81,61,0,0,n432
39.522915,0.21354167,79,66,0,0,n433
39.54271,0.21770833,55,47,0,0,n434
39.741665,0.240625,71,58,0,0,n435
40.014584,1.0802083,72,55,0,0,n436
40.033333,0.14479166,60,47,0,0,n437
40.497917,0.625,48,49,0,0,n438
