onset_sec,duration_sec,pitch,velocity,track,channel,id
0.054166667,0.05625,74,60,0,0,n0
0.05625,0.060416665,48,64,0,0,n1
0.13541667,0.048958335,72,59,0,0,n2
0.21354167,0.047916666,71,60,0,0,n3
0.28854167,0.0625,72,61,0,0,n4
0.38020834,0.046875,71,62,0,0,n5
0.409375,0.055208333,60,59,0,0,n6
0.475,0.028125,72,53,0,0,n7
0.52708334,0.079166666,71,68,0,0,n8
0.60729164,0.040625,72,61,0,0,n9
0.675,0.078125,81,71,0,0,n10
0.70729166,0.044791665,64,64,0,0,n11
0.803125,0.060416665,79,63,0,0,n12
0.8822917,0.05,78,67,0,0,n13
0.95625,0.061458334,79,56,0,0,n14
1.0208334,0.045833334,60,60,0,0,n15
1.040625,0.052083332,78,71,0,0,n16
1.128125,0.053125,79,64,0,0,n17
1.2072917,0.055208333,78,72,0,0,n18
1.2875,0.044791665,79,74,0,0,n19
1.3364583,0.05,65,57,0,0,n20
1.3770833,0.059375,80,70,0,0,n21
1.4635416,0.090625,81,75,0,0,n22
1.5604167,0.096875,84,64,0,0,n23
1.6229167,0.090625,83,62,0,0,n24
1.6729167,0.061458334,60,53,0,0,n25
1.715625,0.10520833,86,62,0,0,n26
1.7864584,0.08958333,84,73,0,0,n27
1.8604167,0.026041666,83,60,0,0,n28
1.915625,0.026041666,81,58,0,0,n29
2.0145833,0.446875,60,62,0,0,n30
2.0145833,0.43333334,64,60,0,0,n31
2.028125,0.07083333,81,75,0,0,n32
2.11875,0.077083334,79,74,0,0,n33
2.2208333,0.108333334,88,75,0,0,n34
2.290625,0.13333334,86,71,0,0,n35
2.3770833,0.088541664,84,67,0,0,n36
2.43125,0.071875,83,69,0,0,n37
2.49375,0.041666668,81,65,0,0,n38
2.6041667,0.041666668,61,67,0,0,n39
2.6114583,0.038541667,79,78,0,0,n40
2.7208333,0.44583333,62,69,0,0,n41
2.7333333,0.079166666,79,85,0,0,n42
2.8447917,0.096875,77,80,0,0,n43
2.9447916,0.13333334,86,73,0,0,n44
3.021875,0.15208334,84,70,0,0,n45
3.1208334,0.06666667,83,68,0,0,n46
3.1895833,0.036458332,81,61,0,0,n47
3.2364583,0.036458332,79,69,0,0,n48
3.346875,0.06979167,59,64,0,0,n49
3.3541667,0.027083334,77,70,0,0,n50
3.453125,0.104166664,77,79,0,0,n51
3.46875,0.42083332,60,69,0,0,n52
3.571875,0.08958333,76,73,0,0,n53
3.6625,0.110416666,84,73,0,0,n54
3.7333333,0.12291667,83,67,0,0,n55
3.8114583,0.06666667,81,64,0,0,n56
3.8635416,0.054166667,79,73,0,0,n57
3.9333334,0.041666668,77,67,0,0,n58
4.0333333,0.06666667,76,70,0,0,n59
4.034375,0.108333334,57,58,0,0,n60
4.133333,0.22083333,74,73,0,0,n61
4.1541667,0.33541667,53,75,0,0,n62
4.3479166,0.20104167,81,71,0,0,n63
4.530208,0.15,79,75,0,0,n64
4.539583,0.13125,55,68,0,0,n65
4.704167,0.25520834,71,67,0,0,n66
4.9114585,0.33333334,72,68,0,0,n67
4.9270835,0.12083333,60,67,0,0,n68
5.273958,0.103125,48,68,0,0,n69
5.586458,0.041666668,81,64,0,0,n70
5.594792,0.103125,64,62,0,0,n71
5.653125,0.06979167,79,68,0,0,n72
5.7635417,0.039583333,78,67,0,0,n73
5.852083,0.044791665,79,62,0,0,n74
5.91875,0.078125,78,67,0,0,n75
5.952083,0.088541664,55,55,0,0,n76
5.9895835,0.08541667,79,68,0,0,n77
6.069792,0.084375,81,61,0,0,n78
6.1302085,0.04375,79,51,0,0,n79
6.265625,0.17083333,62,67,0,0,n80
6.2697916,0.06979167,79,81,0,0,n81
6.3552084,0.039583333,77,71,0,0,n82
6.43125,0.047916666,76,68,0,0,n83
6.508333,0.045833334,77,64,0,0,n84
6.577083,0.079166666,76,77,0,0,n85
6.626042,0.061458334,55,51,0,0,n86
6.678125,0.026041666,77,58,0,0,n87
6.715625,0.096875,79,73,0,0,n88
6.805208,0.0375,77,64,0,0,n89
6.9239583,0.12708333,77,69,0,0,n90
6.9322915,0.11875,60,68,0,0,n91
7.025,0.048958335,76,64,0,0,n92
7.092708,0.029166667,75,63,0,0,n93
7.1770835,0.060416665,76,67,0,0,n94
7.246875,0.08125,75,56,0,0,n95
7.28125,0.067708336,55,56,0,0,n96
7.351042,0.052083332,76,63,0,0,n97
7.407292,0.08020833,77,74,0,0,n98
7.5958333,0.079166666,76,61,0,0,n99
7.5989585,0.09791667,65,66,0,0,n100
7.7052083,0.07395833,74,67,0,0,n101
7.7864585,0.055208333,73,74,0,0,n102
7.896875,0.04375,74,62,0,0,n103
7.9625,0.08541667,73,68,0,0,n104
8.017709,0.039583333,55,50,0,0,n105
8.05,0.07083333,74,69,0,0,n106
8.140625,0.05625,76,70,0,0,n107
8.20625,0.075,74,65,0,0,n108
8.323958,0.55833334,55,60,0,0,n109
8.325,0.56145835,64,65,0,0,n110
8.34375,0.0625,81,68,0,0,n111
8.545834,0.054166667,78,66,0,0,n112
8.619792,0.08645833,79,79,0,0,n113
8.698958,0.15,88,75,0,0,n114
8.792708,0.10729167,84,69,0,0,n115
8.867708,0.04375,81,71,0,0,n116
8.911458,0.040625,79,71,0,0,n117
9.041667,0.54270834,55,61,0,0,n118
9.046875,0.546875,62,63,0,0,n119
9.054167,0.063541666,79,75,0,0,n120
9.111459,0.088541664,77,72,0,0,n121
9.229167,0.04375,76,70,0,0,n122
9.307292,0.11354167,77,61,0,0,n123
9.403125,0.1625,86,75,0,0,n124
9.490625,0.110416666,83,68,0,0,n125
9.56875,0.055208333,79,69,0,0,n126
9.608334,0.048958335,77,69,0,0,n127
9.753125,0.41979167,60,66,0,0,n128
9.754167,0.44479167,55,63,0,0,n129
9.75625,0.06875,77,68,0,0,n130
9.820833,0.0875,76,72,0,0,n131
9.941667,0.07083333,75,72,0,0,n132
10.01875,0.114583336,76,65,0,0,n133
10.121875,0.103125,84,70,0,0,n134
10.210417,0.10729167,79,78,0,0,n135
10.303125,0.048958335,77,51,0,0,n136
10.35625,0.108333334,60,61,0,0,n137
10.36875,0.048958335,76,62,0,0,n138
10.476042,0.32083333,79,80,0,0,n139
10.503125,0.30625,64,73,0,0,n140
10.507292,0.428125,55,67,0,0,n141
10.801042,0.1375,76,68,0,0,n142
10.809375,0.16354166,60,65,0,0,n143
10.913542,0.19375,74,69,0,0,n144
10.941667,0.17291667,59,71,0,0,n145
11.234375,0.07083333,74,71,0,0,n146
11.24375,0.08645833,48,71,0,0,n147
11.310416,0.047916666,72,68,0,0,n148
11.388541,0.051041666,71,63,0,0,n149
11.476042,0.05,72,63,0,0,n150
11.55,0.05625,71,67,0,0,n151
11.558333,0.08541667,60,65,0,0,n152
11.64375,0.042708334,72,63,0,0,n153
11.717709,0.092708334,71,73,0,0,n154
11.805208,0.04375,72,61,0,0,n155
11.879167,0.11354167,81,73,0,0,n156
11.889584,0.1125,64,64,0,0,n157
12.028125,0.047916666,79,59,0,0,n158
12.088542,0.052083332,78,73,0,0,n159
12.179167,0.061458334,79,71,0,0,n160
12.230208,0.058333334,60,53,0,0,n161
12.266666,0.045833334,78,68,0,0,n162
12.345834,0.051041666,79,70,0,0,n163
12.428125,0.06666667,78,68,0,0,n164
12.513541,0.045833334,79,72,0,0,n165
12.603125,0.084375,80,71,0,0,n166
12.607291,0.09791667,65,61,0,0,n167
12.690625,0.09791667,81,70,0,0,n168
12.76875,0.125,84,60,0,0,n169
12.848958,0.104166664,83,66,0,0,n170
12.954166,0.103125,86,68,0,0,n171
12.976042,0.09166667,60,56,0,0,n172
13.008333,0.114583336,84,67,0,0,n173
13.089583,0.051041666,83,70,0,0,n174
13.141666,0.040625,81,63,0,0,n175
13.279166,0.08125,81,75,0,0,n176
13.288542,0.40208334,64,67,0,0,n177
13.290625,0.40416667,60,62,0,0,n178
13.382292,0.09583333,79,74,0,0,n179
13.48125,0.103125,88,74,0,0,n180
13.547916,0.14375,86,69,0,0,n181
13.639584,0.077083334,84,64,0,0,n182
13.691667,0.06666667,83,69,0,0,n183
13.769792,0.033333335,81,61,0,0,n184
13.875,0.034375,61,50,0,0,n185
13.880208,0.027083334,79,61,0,0,n186
13.980208,0.48229167,62,72,0,0,n187
13.989583,0.07395833,79,78,0,0,n188
14.092709,0.08125,77,73,0,0,n189
14.170834,0.11875,86,72,0,0,n190
14.247916,0.12604167,84,69,0,0,n191
14.327084,0.06979167,83,65,0,0,n192
14.369792,0.07083333,81,70,0,0,n193
14.455209,0.026041666,79,60,0,0,n194
14.555208,0.029166667,77,73,0,0,n195
14.5625,0.058333334,59,67,0,0,n196
14.673959,0.08541667,77,70,0,0,n197
14.697917,0.42083332,60,72,0,0,n198
14.771875,0.08645833,76,73,0,0,n199
14.880208,0.096875,84,63,0,0,n200
14.88125,0.08020833,86,58,0,0,n201
14.934375,0.13020833,83,68,0,0,n202
15.0125,0.08020833,81,62,0,0,n203
15.072917,0.047916666,79,64,0,0,n204
15.134375,0.048958335,77,66,0,0,n205
15.2375,0.10729167,76,69,0,0,n206
15.2625,0.090625,57,63,0,0,n207
15.359375,0.25,74,68,0,0,n208
15.391666,0.396875,53,75,0,0,n209
15.584375,0.215625,81,73,0,0,n210
15.773958,0.19375,79,69,0,0,n211
15.7875,0.3875,55,68,0,0,n212
15.9875,0.228125,71,63,0,0,n213
16.186459,0.4125,60,59,0,0,n214
16.197916,0.64479166,72,64,0,0,n215
16.5875,0.35833332,48,67,0,0,n216
